<svg width="277" height="230" viewBox="0 0 277 230" fill="none" xmlns="http://www.w3.org/2000/svg">
<mask id="path-1-outside-1_592_1595" maskUnits="userSpaceOnUse" x="-2.64315" y="-3.66526" width="285.965" height="236.672" fill="black">
<rect fill="white" x="-2.64315" y="-3.66526" width="285.965" height="236.672"/>
<path fill-rule="evenodd" clip-rule="evenodd" d="M116.123 91.0443C114.06 50.4534 145.192 15.8615 185.696 13.7384L185.815 13.7323L185.973 13.7244C226.471 11.7517 260.923 43.0019 262.986 83.5844C263.015 84.1554 263.036 84.7285 263.049 85.3035C263.311 94.7576 261.773 103.863 258.74 112.281C243.874 159.921 195.776 209.721 195.776 209.721L195.776 209.716C195.776 209.716 142.927 165.096 123.285 119.229C119.392 111.133 116.926 102.193 116.232 92.7208C116.188 92.1608 116.152 91.6019 116.123 91.0443ZM54.2112 110.66L98.1561 108.426C101.689 108.247 103.94 105.321 102.445 102.858L77.8627 62.3295C75.9931 59.2452 70.204 59.5782 68.7205 62.8523L49.3534 105.614C48.1789 108.209 50.7124 110.838 54.2112 110.66ZM161.251 209.566L117.306 211.8C113.807 211.977 111.274 209.349 112.448 206.754L131.816 163.992C133.299 160.718 139.088 160.385 140.958 163.469L165.54 203.997C167.035 206.461 164.784 209.386 161.251 209.566ZM37.2532 96.2017C47.8654 95.6623 54.4706 89.2053 53.92 78.3721C53.3659 67.4713 46.0656 61.5854 35.3858 62.1282L16.4923 63.0885C14.3013 63.1999 13.5868 63.9923 13.6949 66.1193L15.8768 109.046C15.9849 111.173 16.7761 111.889 18.9671 111.777L26.6982 111.385C28.8892 111.273 29.5361 110.484 29.428 108.357L28.8319 96.6297L37.2532 96.2017ZM29.9225 117.991L31.6408 151.796L48.1406 150.957C50.264 150.85 51.0518 151.498 51.1633 153.692L51.4805 159.933C51.5886 162.06 50.8741 162.853 48.7507 162.96L21.6386 164.339C19.4476 164.45 18.6565 163.734 18.5484 161.607L16.3665 118.68C16.2584 116.553 16.9729 115.761 19.1639 115.65L26.8998 115.256C29.0908 115.145 29.8144 115.864 29.9225 117.991ZM64.1415 113.363L56.0629 113.774C54.0119 113.878 53.3613 114.595 53.4659 116.654L55.6618 159.856C55.7662 161.911 56.4816 162.563 58.5374 162.458L66.6161 162.048C68.6671 161.943 69.3177 161.227 69.213 159.168L67.0172 115.965C66.9127 113.911 66.1974 113.259 64.1415 113.363ZM59.5946 168.501L61.7764 211.428C61.8845 213.555 61.17 214.348 59.0466 214.455L51.3106 214.849C49.8725 214.922 49.0988 214.549 48.4322 213.619L37.0614 197.902C33.8095 193.323 32.4826 190.158 30.3207 184.083L29.7754 184.111L29.946 184.737C31.6125 190.851 32.5588 194.323 32.9332 201.689L33.5013 212.865C33.6094 214.992 32.8949 215.785 30.7039 215.896L23.7932 216.247C21.6022 216.359 20.811 215.643 20.7029 213.516L18.5211 170.589C18.4129 168.462 19.1275 167.67 21.3184 167.558L29.397 167.148C30.9703 167.068 31.6765 167.444 32.3431 168.374L44.4606 185.361C46.8058 188.664 47.8148 190.925 49.1162 193.843L49.1163 193.843C49.6194 194.971 50.1663 196.196 50.851 197.618L51.3963 197.591C48.8463 190.639 47.791 187.392 47.4355 180.397L46.864 169.153C46.7559 167.026 47.4028 166.237 49.5938 166.126L56.5769 165.771C58.7003 165.663 59.4915 166.379 59.5996 168.506L59.5946 168.501ZM109.017 209.027L106.836 166.1C106.724 163.906 105.933 163.19 103.809 163.298L96.0059 163.694C93.8825 163.802 93.168 164.595 93.2796 166.789L94.0499 181.944L80.7689 182.619L79.9986 167.464C79.887 165.27 79.1634 164.55 76.9725 164.662L69.2365 165.055C67.0455 165.166 66.331 165.959 66.4426 168.153L68.6244 211.08C68.7325 213.207 69.5237 213.923 71.7147 213.812L79.4507 213.418C81.6416 213.307 82.2886 212.518 82.1805 210.391L81.3787 194.617L94.6597 193.942L95.4614 209.716C95.5695 211.843 96.3607 212.559 98.4841 212.451L106.288 212.054C108.411 211.946 109.126 211.154 109.017 209.027Z"/>
</mask>
<path fill-rule="evenodd" clip-rule="evenodd" d="M116.123 91.0443C114.06 50.4534 145.192 15.8615 185.696 13.7384L185.815 13.7323L185.973 13.7244C226.471 11.7517 260.923 43.0019 262.986 83.5844C263.015 84.1554 263.036 84.7285 263.049 85.3035C263.311 94.7576 261.773 103.863 258.74 112.281C243.874 159.921 195.776 209.721 195.776 209.721L195.776 209.716C195.776 209.716 142.927 165.096 123.285 119.229C119.392 111.133 116.926 102.193 116.232 92.7208C116.188 92.1608 116.152 91.6019 116.123 91.0443ZM54.2112 110.66L98.1561 108.426C101.689 108.247 103.94 105.321 102.445 102.858L77.8627 62.3295C75.9931 59.2452 70.204 59.5782 68.7205 62.8523L49.3534 105.614C48.1789 108.209 50.7124 110.838 54.2112 110.66ZM161.251 209.566L117.306 211.8C113.807 211.977 111.274 209.349 112.448 206.754L131.816 163.992C133.299 160.718 139.088 160.385 140.958 163.469L165.54 203.997C167.035 206.461 164.784 209.386 161.251 209.566ZM37.2532 96.2017C47.8654 95.6623 54.4706 89.2053 53.92 78.3721C53.3659 67.4713 46.0656 61.5854 35.3858 62.1282L16.4923 63.0885C14.3013 63.1999 13.5868 63.9923 13.6949 66.1193L15.8768 109.046C15.9849 111.173 16.7761 111.889 18.9671 111.777L26.6982 111.385C28.8892 111.273 29.5361 110.484 29.428 108.357L28.8319 96.6297L37.2532 96.2017ZM29.9225 117.991L31.6408 151.796L48.1406 150.957C50.264 150.85 51.0518 151.498 51.1633 153.692L51.4805 159.933C51.5886 162.06 50.8741 162.853 48.7507 162.96L21.6386 164.339C19.4476 164.45 18.6565 163.734 18.5484 161.607L16.3665 118.68C16.2584 116.553 16.9729 115.761 19.1639 115.65L26.8998 115.256C29.0908 115.145 29.8144 115.864 29.9225 117.991ZM64.1415 113.363L56.0629 113.774C54.0119 113.878 53.3613 114.595 53.4659 116.654L55.6618 159.856C55.7662 161.911 56.4816 162.563 58.5374 162.458L66.6161 162.048C68.6671 161.943 69.3177 161.227 69.213 159.168L67.0172 115.965C66.9127 113.911 66.1974 113.259 64.1415 113.363ZM59.5946 168.501L61.7764 211.428C61.8845 213.555 61.17 214.348 59.0466 214.455L51.3106 214.849C49.8725 214.922 49.0988 214.549 48.4322 213.619L37.0614 197.902C33.8095 193.323 32.4826 190.158 30.3207 184.083L29.7754 184.111L29.946 184.737C31.6125 190.851 32.5588 194.323 32.9332 201.689L33.5013 212.865C33.6094 214.992 32.8949 215.785 30.7039 215.896L23.7932 216.247C21.6022 216.359 20.811 215.643 20.7029 213.516L18.5211 170.589C18.4129 168.462 19.1275 167.67 21.3184 167.558L29.397 167.148C30.9703 167.068 31.6765 167.444 32.3431 168.374L44.4606 185.361C46.8058 188.664 47.8148 190.925 49.1162 193.843L49.1163 193.843C49.6194 194.971 50.1663 196.196 50.851 197.618L51.3963 197.591C48.8463 190.639 47.791 187.392 47.4355 180.397L46.864 169.153C46.7559 167.026 47.4028 166.237 49.5938 166.126L56.5769 165.771C58.7003 165.663 59.4915 166.379 59.5996 168.506L59.5946 168.501ZM109.017 209.027L106.836 166.1C106.724 163.906 105.933 163.19 103.809 163.298L96.0059 163.694C93.8825 163.802 93.168 164.595 93.2796 166.789L94.0499 181.944L80.7689 182.619L79.9986 167.464C79.887 165.27 79.1634 164.55 76.9725 164.662L69.2365 165.055C67.0455 165.166 66.331 165.959 66.4426 168.153L68.6244 211.08C68.7325 213.207 69.5237 213.923 71.7147 213.812L79.4507 213.418C81.6416 213.307 82.2886 212.518 82.1805 210.391L81.3787 194.617L94.6597 193.942L95.4614 209.716C95.5695 211.843 96.3607 212.559 98.4841 212.451L106.288 212.054C108.411 211.946 109.126 211.154 109.017 209.027Z" fill="#D9D9D9" fill-opacity="0.13"/>
<path d="M185.696 13.7384L185.026 0.755666L185.015 0.756205L185.696 13.7384ZM185.815 13.7323L185.168 0.748321C185.16 0.748719 185.152 0.749125 185.144 0.749538L185.815 13.7323ZM185.973 13.7244L185.34 0.739762L185.327 0.740445L185.973 13.7244ZM263.049 85.3035L250.052 85.5923C250.053 85.6163 250.053 85.6403 250.054 85.6643L263.049 85.3035ZM258.74 112.281L246.509 107.874C246.446 108.051 246.386 108.229 246.33 108.408L258.74 112.281ZM195.776 209.721L182.793 210.381C183.056 215.553 186.364 220.076 191.214 221.894C196.063 223.711 201.529 222.477 205.127 218.752L195.776 209.721ZM195.776 209.716L208.759 209.056C208.577 205.462 206.912 202.104 204.163 199.783L195.776 209.716ZM123.285 119.229L135.236 114.112C135.161 113.938 135.083 113.765 135.001 113.595L123.285 119.229ZM116.232 92.7208L129.197 91.7707C129.196 91.7468 129.194 91.7228 129.192 91.6988L116.232 92.7208ZM102.445 102.858L91.3303 109.6L91.3306 109.6L102.445 102.858ZM77.8627 62.3295L66.7456 69.0681L66.7476 69.0715L77.8627 62.3295ZM68.7205 62.8523L56.8792 57.4872L56.8784 57.489L68.7205 62.8523ZM49.3534 105.614L37.5114 100.251L37.5104 100.253L49.3534 105.614ZM117.306 211.8L117.966 224.783L117.306 211.8ZM161.251 209.566L160.591 196.583L161.251 209.566ZM112.448 206.754L100.606 201.391L100.605 201.393L112.448 206.754ZM131.816 163.992L119.974 158.627L119.973 158.629L131.816 163.992ZM140.958 163.469L129.841 170.208L129.843 170.211L140.958 163.469ZM165.54 203.997L154.425 210.739L154.426 210.74L165.54 203.997ZM37.2532 96.2017L37.9131 109.185L37.2532 96.2017ZM35.3858 62.1282L36.0457 75.1115L35.3858 62.1282ZM16.4923 63.0885L15.8324 50.1053L16.4923 63.0885ZM13.6949 66.1193L26.6782 65.4594L13.6949 66.1193ZM15.8768 109.046L2.89355 109.706L15.8768 109.046ZM18.9671 111.777L19.627 124.761L18.9671 111.777ZM26.6982 111.385L26.0383 98.4013L26.6982 111.385ZM28.8319 96.6297L28.172 83.6465C24.7287 83.8215 21.4958 85.3572 19.1848 87.9158C16.8737 90.4744 15.6737 93.8463 15.8487 97.2896L28.8319 96.6297ZM31.6408 151.796L18.6575 152.456C19.022 159.626 25.1302 165.144 32.3007 164.779L31.6408 151.796ZM48.7507 162.96L49.4106 175.944L48.7507 162.96ZM21.6386 164.339L20.9787 151.355L21.6386 164.339ZM18.5484 161.607L31.5316 160.947L18.5484 161.607ZM16.3665 118.68L3.38325 119.34L16.3665 118.68ZM19.1639 115.65L18.504 102.666L19.1639 115.65ZM26.8998 115.256L27.5597 128.24L26.8998 115.256ZM58.5374 162.458L59.1973 175.441L58.5374 162.458ZM66.6161 162.048L65.9561 149.064L66.6161 162.048ZM69.213 159.168L56.2298 159.827L69.213 159.168ZM67.0172 115.965L80.0004 115.305L67.0172 115.965ZM59.5946 168.501L68.297 158.844C64.393 155.326 58.755 154.505 54.0095 156.762C49.264 159.02 46.3446 163.913 46.6113 169.161L59.5946 168.501ZM59.0466 214.455L58.3867 201.472L59.0466 214.455ZM51.3106 214.849L51.9706 227.832L51.3106 214.849ZM48.4322 213.619L59.0004 206.048C58.9885 206.031 58.9766 206.015 58.9646 205.998L48.4322 213.619ZM37.0614 197.902L26.462 205.429C26.4842 205.46 26.5065 205.491 26.529 205.523L37.0614 197.902ZM30.3207 184.083L42.5682 179.724C40.6428 174.314 35.3959 170.808 29.6608 171.1L30.3207 184.083ZM29.7754 184.111L29.1155 171.128C25.1852 171.327 21.557 173.297 19.2481 176.484C16.9392 179.67 16.1981 183.732 17.2327 187.529L29.7754 184.111ZM29.946 184.737L17.4032 188.155L17.4035 188.156L29.946 184.737ZM30.7039 215.896L31.3638 228.879L30.7039 215.896ZM23.7932 216.247L23.1333 203.264L23.7932 216.247ZM32.3431 168.374L42.9263 160.825C42.9213 160.818 42.9163 160.811 42.9113 160.804L32.3431 168.374ZM44.4606 185.361L55.0601 177.835C55.0547 177.827 55.0492 177.819 55.0438 177.812L44.4606 185.361ZM49.1162 193.843L37.2441 199.139C37.321 199.312 37.4017 199.482 37.486 199.651L49.1162 193.843ZM49.1163 193.843L60.9885 188.546C60.9115 188.374 60.8309 188.203 60.7465 188.034L49.1163 193.843ZM50.851 197.618L39.1383 203.259C41.4087 207.973 46.2847 210.867 51.5109 210.601L50.851 197.618ZM51.3963 197.591L52.0562 210.574C56.1817 210.364 59.9619 208.206 62.2402 204.761C64.5185 201.315 65.0236 196.992 63.601 193.113L51.3963 197.591ZM47.4355 180.397L60.4188 179.738L47.4355 180.397ZM46.864 169.153L33.8808 169.813L46.864 169.153ZM49.5938 166.126L50.2537 179.109L49.5938 166.126ZM56.5769 165.771L55.917 152.788L56.5769 165.771ZM59.5996 168.506L50.8972 178.164C54.8012 181.681 60.4392 182.503 65.1847 180.245C69.9302 177.987 72.8496 173.095 72.5829 167.846L59.5996 168.506ZM94.0499 181.944L94.7098 194.927C98.1531 194.752 101.386 193.217 103.697 190.658C106.008 188.1 107.208 184.728 107.033 181.284L94.0499 181.944ZM80.7689 182.619L67.7856 183.279C68.1501 190.45 74.2583 195.967 81.4288 195.602L80.7689 182.619ZM76.9725 164.662L76.3126 151.679L76.9725 164.662ZM69.2365 165.055L69.8964 178.038L69.2365 165.055ZM71.7147 213.812L72.3746 226.795L71.7147 213.812ZM79.4507 213.418L78.7907 200.435L79.4507 213.418ZM81.3787 194.617L80.7188 181.634C77.2754 181.809 74.0426 183.345 71.7316 185.904C69.4205 188.462 68.2205 191.834 68.3955 195.277L81.3787 194.617ZM94.6597 193.942L107.643 193.282C107.278 186.112 101.17 180.595 93.9998 180.959L94.6597 193.942ZM185.015 0.756205C137.325 3.25606 100.714 43.976 103.14 91.7042L129.106 90.3844C127.406 56.9309 153.059 28.467 186.376 26.7206L185.015 0.756205ZM185.144 0.749538L185.026 0.75567L186.366 26.7211L186.485 26.715L185.144 0.749538ZM185.327 0.740445L185.168 0.748321L186.461 26.7162L186.619 26.7083L185.327 0.740445ZM275.969 82.9245C273.544 35.208 233.025 -1.58293 185.34 0.73977L186.605 26.709C219.918 25.0864 248.303 50.7958 250.003 84.2443L275.969 82.9245ZM276.046 85.0148C276.03 84.318 276.005 83.6211 275.969 82.9245L250.003 84.2443C250.026 84.6896 250.042 85.1389 250.052 85.5923L276.046 85.0148ZM270.97 116.688C274.544 106.77 276.352 96.0482 276.044 84.9428L250.054 85.6643C250.27 93.4669 249.002 100.957 246.509 107.874L270.97 116.688ZM195.776 209.721C205.127 218.752 205.129 218.75 205.131 218.748C205.131 218.748 205.133 218.745 205.135 218.744C205.138 218.74 205.142 218.736 205.147 218.731C205.157 218.721 205.17 218.708 205.185 218.692C205.216 218.66 205.258 218.615 205.312 218.559C205.419 218.447 205.571 218.287 205.766 218.082C206.154 217.671 206.713 217.076 207.42 216.31C208.835 214.779 210.849 212.562 213.303 209.761C218.204 204.165 224.89 196.203 232.062 186.694C246.216 167.93 263.042 142.137 271.15 116.153L246.33 108.408C239.572 130.065 224.916 152.992 211.305 171.038C204.594 179.934 198.326 187.399 193.745 192.63C191.457 195.241 189.598 197.287 188.324 198.665C187.687 199.354 187.198 199.876 186.874 200.218C186.713 200.389 186.593 200.514 186.517 200.594C186.48 200.633 186.453 200.661 186.437 200.677C186.43 200.685 186.425 200.69 186.423 200.692C186.422 200.693 186.422 200.694 186.422 200.693C186.422 200.693 186.423 200.692 186.423 200.692C186.424 200.691 186.426 200.689 195.776 209.721ZM182.793 210.376L182.793 210.381L208.76 209.061L208.759 209.056L182.793 210.376ZM111.335 124.347C122.047 149.36 141.392 173.295 157.366 190.514C165.46 199.239 172.913 206.476 178.352 211.541C181.075 214.077 183.302 216.076 184.863 217.454C185.644 218.144 186.259 218.678 186.687 219.048C186.901 219.232 187.068 219.375 187.186 219.476C187.245 219.526 187.292 219.566 187.326 219.595C187.343 219.609 187.357 219.621 187.367 219.63C187.373 219.635 187.377 219.638 187.381 219.642C187.383 219.643 187.385 219.645 187.386 219.646C187.388 219.647 187.39 219.649 195.776 209.716C204.163 199.783 204.164 199.784 204.165 199.785C204.165 199.785 204.166 199.786 204.166 199.786C204.167 199.787 204.167 199.786 204.166 199.785C204.163 199.783 204.158 199.779 204.15 199.772C204.133 199.757 204.103 199.732 204.062 199.697C203.978 199.626 203.847 199.513 203.669 199.36C203.313 199.053 202.773 198.584 202.071 197.964C200.665 196.723 198.61 194.878 196.071 192.514C190.987 187.779 184 180.995 176.427 172.831C161.066 156.273 144.166 134.965 135.236 114.112L111.335 124.347ZM103.267 93.6709C104.082 104.798 106.982 115.324 111.57 124.864L135.001 113.595C131.801 106.942 129.77 99.5889 129.197 91.7707L103.267 93.6709ZM103.14 91.7042C103.175 92.3846 103.219 93.0642 103.272 93.7429L129.192 91.6988C129.157 91.2575 129.129 90.8193 129.106 90.3844L103.14 91.7042ZM97.4962 95.4429L53.5513 97.6765L54.8711 123.643L98.8161 121.409L97.4962 95.4429ZM91.3306 109.6C90.3019 107.904 89.7559 105.787 89.9547 103.577C90.146 101.45 90.9741 99.751 91.8856 98.5672C93.6602 96.2625 95.9343 95.5223 97.4962 95.4429L98.8161 121.409C103.911 121.15 109.076 118.858 112.486 114.43C116.129 109.698 117.456 102.537 113.56 96.1151L91.3306 109.6ZM66.7476 69.0715L91.3303 109.6L113.561 96.1155L88.9778 55.5875L66.7476 69.0715ZM80.5618 68.2175C78.6506 72.4357 75.0214 73.1204 73.8908 73.1852C72.7511 73.2505 69.1174 72.9811 66.7456 69.0681L88.9798 55.5909C84.7385 48.5936 77.2753 46.9485 72.4029 47.2278C67.5394 47.5066 60.2739 49.9949 56.8792 57.4872L80.5618 68.2175ZM61.1955 110.978L80.5626 68.2157L56.8784 57.489L37.5114 100.251L61.1955 110.978ZM53.5513 97.6765C55.0961 97.598 57.4019 98.0908 59.3934 100.159C60.4168 101.221 61.419 102.798 61.8507 104.866C62.2993 107.015 62.0145 109.169 61.1964 110.975L37.5104 100.253C34.4336 107.05 36.5721 113.943 40.6663 118.195C44.5056 122.181 49.8276 123.899 54.8711 123.643L53.5513 97.6765ZM117.966 224.783L161.911 222.549L160.591 196.583L116.646 198.816L117.966 224.783ZM100.605 201.393C97.5287 208.189 99.6671 215.083 103.761 219.334C107.601 223.321 112.923 225.039 117.966 224.783L116.646 198.816C118.191 198.738 120.497 199.231 122.488 201.298C123.512 202.361 124.514 203.938 124.946 206.006C125.394 208.155 125.11 210.308 124.292 212.115L100.605 201.393ZM119.973 158.629L100.606 201.391L124.291 212.117L143.658 169.356L119.973 158.629ZM152.075 156.731C147.834 149.733 140.37 148.088 135.498 148.368C130.634 148.646 123.369 151.135 119.974 158.627L143.657 169.357C141.746 173.575 138.116 174.26 136.986 174.325C135.846 174.39 132.212 174.121 129.841 170.208L152.075 156.731ZM176.656 197.255L152.073 156.727L129.843 170.211L154.425 210.739L176.656 197.255ZM161.911 222.549C167.006 222.29 172.172 219.998 175.581 215.569C179.224 210.838 180.551 203.677 176.655 197.255L154.426 210.74C153.397 209.044 152.851 206.927 153.05 204.717C153.241 202.59 154.069 200.891 154.981 199.707C156.755 197.402 159.029 196.662 160.591 196.583L161.911 222.549ZM40.9368 79.0321C41.0044 80.3631 40.8329 81.1628 40.6993 81.5662C40.5757 81.9397 40.4519 82.0844 40.3863 82.1528C40.3124 82.23 39.4624 83.0726 36.5933 83.2184L37.9131 109.185C45.6562 108.791 53.4149 106.136 59.159 100.141C65.0067 94.0388 67.3235 85.9796 66.9033 77.7122L40.9368 79.0321ZM36.0457 75.1115C38.8969 74.9666 39.8637 75.7212 39.9929 75.8318C40.0217 75.8565 40.805 76.4403 40.9368 79.0321L66.9033 77.7122C66.4809 69.4031 63.337 61.5936 56.9072 56.0858C50.5778 50.664 42.5546 48.7471 34.7259 49.145L36.0457 75.1115ZM17.1522 76.0718L36.0457 75.1115L34.7259 49.145L15.8324 50.1053L17.1522 76.0718ZM26.6782 65.4594C26.685 65.594 26.7287 66.4519 26.4495 67.6695C26.1404 69.0175 25.4107 70.8948 23.8053 72.6425C22.2098 74.3794 20.4314 75.2455 19.1884 75.6556C18.0576 76.0286 17.2518 76.0667 17.1522 76.0718L15.8324 50.1053C13.9147 50.2028 8.70344 50.6493 4.65764 55.0536C0.550455 59.5248 0.612137 64.8206 0.711688 66.7792L26.6782 65.4594ZM28.86 108.386L26.6782 65.4594L0.711688 66.7792L2.89355 109.706L28.86 108.386ZM18.3071 98.7943C18.4067 98.7892 19.2123 98.7454 20.375 99.0019C21.6532 99.2838 23.5102 99.9651 25.2736 101.531C27.048 103.107 27.9642 104.901 28.4084 106.211C28.8096 107.394 28.8532 108.251 28.86 108.386L2.89355 109.706C2.99311 111.665 3.4687 116.939 8.00806 120.971C12.4796 124.942 17.7092 124.858 19.627 124.761L18.3071 98.7943ZM26.0383 98.4013L18.3071 98.7943L19.627 124.761L27.3581 124.368L26.0383 98.4013ZM16.4448 109.017C16.4418 108.958 16.3938 108.163 16.6394 107.009C16.9111 105.731 17.5852 103.825 19.1894 102.012C20.8022 100.189 22.6372 99.2713 23.9381 98.8358C25.1091 98.4439 25.9467 98.406 26.0383 98.4013L27.3581 124.368C29.2383 124.272 34.5963 123.835 38.6612 119.241C42.6668 114.714 42.4985 109.413 42.4113 107.697L16.4448 109.017ZM15.8487 97.2896L16.4448 109.017L42.4113 107.697L41.8152 95.9698L15.8487 97.2896ZM36.5933 83.2184L28.172 83.6465L29.4918 109.613L37.9131 109.185L36.5933 83.2184ZM44.624 151.136L42.9058 117.331L16.9393 118.651L18.6575 152.456L44.624 151.136ZM47.4807 137.974L30.9808 138.813L32.3007 164.779L48.8005 163.941L47.4807 137.974ZM64.1465 153.032C64.0513 151.159 63.6179 145.807 59.0375 141.74C54.5104 137.721 49.2022 137.887 47.4807 137.974L48.8005 163.941C48.7384 163.944 47.9391 163.992 46.7791 163.744C45.4945 163.47 43.5868 162.791 41.7753 161.183C39.9563 159.568 39.0432 157.734 38.6111 156.439C38.222 155.273 38.1846 154.441 38.1801 154.352L64.1465 153.032ZM64.4638 159.273L64.1465 153.032L38.1801 154.352L38.4973 160.593L64.4638 159.273ZM49.4106 175.944C51.3821 175.844 56.59 175.364 60.6069 170.91C64.6181 166.461 64.5636 161.238 64.4638 159.273L38.4973 160.593C38.4902 160.455 38.4483 159.613 38.7194 158.416C39.0177 157.099 39.7243 155.243 41.2979 153.498C42.8724 151.752 44.6486 150.856 45.9348 150.422C47.1028 150.029 47.9492 149.984 48.0908 149.977L49.4106 175.944ZM22.2985 177.322L49.4106 175.944L48.0908 149.977L20.9787 151.355L22.2985 177.322ZM5.56511 162.267C5.66466 164.226 6.14026 169.5 10.6797 173.532C15.1512 177.503 20.3808 177.419 22.2985 177.322L20.9787 151.355C21.0783 151.35 21.8838 151.306 23.0465 151.563C24.3247 151.845 26.1818 152.526 27.9452 154.092C29.7195 155.668 30.6358 157.462 31.08 158.772C31.4812 159.955 31.5248 160.813 31.5316 160.947L5.56511 162.267ZM3.38325 119.34L5.56511 162.267L31.5316 160.947L29.3497 118.02L3.38325 119.34ZM18.504 102.666C16.5862 102.764 11.375 103.21 7.32919 107.615C3.22201 112.086 3.2837 117.382 3.38325 119.34L29.3497 118.02C29.3566 118.155 29.4002 119.013 29.121 120.231C28.8119 121.579 28.0823 123.456 26.4768 125.204C24.8813 126.94 23.103 127.807 21.8599 128.217C20.7292 128.59 19.9234 128.628 19.8238 128.633L18.504 102.666ZM26.2399 102.273L18.504 102.666L19.8238 128.633L27.5597 128.24L26.2399 102.273ZM42.9058 117.331C42.8186 115.616 42.4485 110.325 38.0045 106.227C33.4949 102.069 28.1202 102.178 26.2399 102.273L27.5597 128.24C27.4681 128.244 26.631 128.291 25.4263 128.02C24.0879 127.719 22.1693 126.992 20.38 125.342C18.6003 123.701 17.7364 121.874 17.3365 120.63C16.9752 119.506 16.9423 118.71 16.9393 118.651L42.9058 117.331ZM56.7228 126.757L64.8015 126.347L63.4816 100.38L55.403 100.791L56.7228 126.757ZM66.4492 115.994C66.4542 116.093 66.5009 116.929 66.2394 118.126C65.9499 119.45 65.2433 121.379 63.6044 123.194C61.9652 125.009 60.1175 125.909 58.8265 126.332C57.661 126.714 56.8229 126.752 56.7228 126.757L55.403 100.791C53.6661 100.879 48.3712 101.268 44.3077 105.768C40.2462 110.266 40.3941 115.571 40.4827 117.314L66.4492 115.994ZM68.6451 159.196L66.4492 115.994L40.4827 117.314L42.6786 160.516L68.6451 159.196ZM57.8775 149.475C57.9798 149.47 58.8204 149.423 60.022 149.687C61.3532 149.979 63.2835 150.69 65.0967 152.333C66.9081 153.975 67.8029 155.821 68.2228 157.106C68.6021 158.266 68.6401 159.1 68.6451 159.196L42.6786 160.516C42.7666 162.247 43.1526 167.536 47.639 171.601C52.1366 175.676 57.4486 175.53 59.1973 175.441L57.8775 149.475ZM65.9561 149.064L57.8775 149.475L59.1973 175.441L67.276 175.031L65.9561 149.064ZM56.2298 159.827C56.2248 159.728 56.1781 158.893 56.4396 157.696C56.7291 156.371 57.4357 154.443 59.0746 152.628C60.7139 150.813 62.5616 149.913 63.8525 149.49C65.018 149.108 65.8562 149.069 65.9561 149.064L67.276 175.031C69.0128 174.943 74.3077 174.553 78.3713 170.053C82.4328 165.556 82.2849 160.25 82.1963 158.508L56.2298 159.827ZM54.0339 116.625L56.2298 159.827L82.1963 158.508L80.0004 115.305L54.0339 116.625ZM64.8015 126.347C64.6992 126.352 63.8586 126.399 62.657 126.135C61.3257 125.843 59.3955 125.131 57.5823 123.488C55.7708 121.847 54.8761 120.001 54.4562 118.716C54.0768 117.556 54.0389 116.722 54.0339 116.625L80.0004 115.305C79.9124 113.575 79.5264 108.286 75.04 104.221C70.5424 100.146 65.2304 100.291 63.4816 100.38L64.8015 126.347ZM74.7597 210.768L72.5778 167.842L46.6113 169.161L48.7932 212.088L74.7597 210.768ZM59.7065 227.439C61.678 227.339 66.8859 226.859 70.9028 222.405C74.914 217.956 74.8595 212.733 74.7597 210.768L48.7932 212.088C48.7862 211.95 48.7442 211.108 49.0153 209.911C49.3136 208.594 50.0203 206.738 51.5938 204.993C53.1683 203.247 54.9445 202.351 56.2307 201.917C57.3987 201.524 58.2451 201.479 58.3867 201.472L59.7065 227.439ZM51.9706 227.832L59.7065 227.439L58.3867 201.472L50.6507 201.865L51.9706 227.832ZM37.8639 221.189C39.1561 222.993 41.2102 225.133 44.358 226.514C47.3265 227.817 50.105 227.927 51.9706 227.832L50.6507 201.865C51.0781 201.844 52.7507 201.804 54.8062 202.706C57.0409 203.687 58.3749 205.175 59.0004 206.048L37.8639 221.189ZM26.529 205.523L37.8997 221.239L58.9646 205.998L47.5939 190.282L26.529 205.523ZM18.0733 188.442C20.3957 194.968 22.1985 199.425 26.462 205.429L47.6609 190.376C45.4206 187.221 44.5694 185.347 42.5682 179.724L18.0733 188.442ZM30.4353 197.094L30.9806 197.066L29.6608 171.1L29.1155 171.128L30.4353 197.094ZM42.4887 181.319L42.3181 180.693L17.2327 187.529L17.4032 188.155L42.4887 181.319ZM45.9165 201.029C45.4706 192.258 44.2332 187.719 42.4884 181.318L17.4035 188.156C18.9918 193.983 19.647 196.388 19.95 202.349L45.9165 201.029ZM46.4845 212.205L45.9165 201.029L19.95 202.349L20.5181 213.525L46.4845 212.205ZM31.3638 228.879C33.2815 228.782 38.4927 228.335 42.5386 223.931C46.6458 219.46 46.5841 214.164 46.4845 212.205L20.5181 213.525C20.5112 213.391 20.4676 212.533 20.7468 211.315C21.0559 209.967 21.7855 208.09 23.391 206.342C24.9865 204.605 26.7649 203.739 28.0079 203.329C29.1386 202.956 29.9444 202.918 30.044 202.913L31.3638 228.879ZM24.4531 229.231L31.3638 228.879L30.044 202.913L23.1333 203.264L24.4531 229.231ZM7.71968 214.176C7.81923 216.134 8.29482 221.409 12.8342 225.441C17.3058 229.412 22.5354 229.328 24.4531 229.231L23.1333 203.264C23.2329 203.259 24.0384 203.215 25.2011 203.472C26.4793 203.754 28.3363 204.435 30.0997 206.001C31.8741 207.577 32.7904 209.371 33.2345 210.68C33.6358 211.863 33.6793 212.721 33.6862 212.856L7.71968 214.176ZM5.53781 171.249L7.71968 214.176L33.6862 212.856L31.5043 169.929L5.53781 171.249ZM20.6585 154.575C18.7408 154.673 13.5296 155.119 9.48379 159.523C5.37658 163.995 5.43826 169.29 5.53781 171.249L31.5043 169.929C31.5111 170.064 31.5548 170.922 31.2756 172.139C30.9665 173.487 30.2368 175.365 28.6314 177.112C27.0359 178.849 25.2575 179.715 24.0144 180.125C22.8837 180.498 22.0779 180.537 21.9783 180.542L20.6585 154.575ZM28.7371 154.165L20.6585 154.575L21.9783 180.542L30.057 180.131L28.7371 154.165ZM42.9113 160.804C41.7623 159.2 39.7473 156.932 36.4341 155.478C33.3639 154.131 30.5016 154.075 28.7371 154.165L30.057 180.131C29.8657 180.141 28.1431 180.233 25.986 179.286C23.5858 178.233 22.2573 176.618 21.7748 175.945L42.9113 160.804ZM55.0438 177.812L42.9263 160.825L21.7598 175.924L33.8774 192.911L55.0438 177.812ZM60.9883 188.546C59.6134 185.464 58.1816 182.231 55.0601 177.835L33.8611 192.888C35.4301 195.097 36.0161 196.387 37.2441 199.139L60.9883 188.546ZM60.7465 188.034L60.7464 188.034L37.486 199.651L37.4861 199.651L60.7465 188.034ZM62.5636 191.978C61.9705 190.746 61.4933 189.678 60.9885 188.546L37.2441 199.139C37.7456 200.263 38.362 201.647 39.1383 203.259L62.5636 191.978ZM50.7364 184.607L50.1911 184.635L51.5109 210.601L52.0562 210.574L50.7364 184.607ZM34.4523 181.057C34.9046 189.957 36.4611 194.624 39.1916 202.068L63.601 193.113C61.2316 186.654 60.6775 184.827 60.4188 179.738L34.4523 181.057ZM33.8808 169.813L34.4523 181.057L60.4188 179.738L59.8472 168.493L33.8808 169.813ZM48.9339 153.143C47.0537 153.238 41.6957 153.675 37.6309 158.269C33.6252 162.796 33.7935 168.097 33.8808 169.813L59.8472 168.493C59.8502 168.552 59.8982 169.347 59.6526 170.502C59.3809 171.78 58.7067 173.686 57.1026 175.499C55.4898 177.321 53.6548 178.239 52.3539 178.675C51.1829 179.067 50.3453 179.105 50.2537 179.109L48.9339 153.143ZM55.917 152.788L48.9339 153.143L50.2537 179.109L57.2369 178.754L55.917 152.788ZM72.5829 167.846C72.483 165.881 72.0076 160.679 67.5661 156.661C63.1181 152.636 57.8885 152.688 55.917 152.788L57.2369 178.754C57.0953 178.762 56.2487 178.803 55.0468 178.53C53.7233 178.229 51.8654 177.518 50.122 175.94C48.3796 174.364 47.4884 172.589 47.0581 171.309C46.667 170.146 46.6234 169.304 46.6164 169.166L72.5829 167.846ZM50.8921 178.159L50.8972 178.164L68.3021 158.849L68.297 158.844L50.8921 178.159ZM93.8524 166.76L96.0342 209.687L122.001 208.367L119.819 165.44L93.8524 166.76ZM104.469 176.281C104.331 176.288 103.469 176.332 102.246 176.05C100.891 175.738 99.0123 175.004 97.2664 173.395C95.5334 171.797 94.6721 170.02 94.2652 168.783C93.8949 167.658 93.8573 166.857 93.8524 166.76L119.819 165.44C119.722 163.529 119.279 158.324 114.888 154.277C110.417 150.156 105.115 150.215 103.15 150.314L104.469 176.281ZM96.6658 176.678L104.469 176.281L103.15 150.314L95.346 150.711L96.6658 176.678ZM106.263 166.129C106.268 166.226 106.311 167.026 106.057 168.184C105.778 169.456 105.101 171.311 103.539 173.076C101.965 174.854 100.171 175.775 98.8546 176.222C97.6666 176.626 96.8038 176.671 96.6658 176.678L95.346 150.711C93.3808 150.811 88.0999 151.29 84.0703 155.843C80.1122 160.315 80.1992 165.538 80.2963 167.449L106.263 166.129ZM107.033 181.284L106.263 166.129L80.2963 167.449L81.0666 182.604L107.033 181.284ZM81.4288 195.602L94.7098 194.927L93.3899 168.961L80.109 169.636L81.4288 195.602ZM67.0154 168.124L67.7856 183.279L93.7521 181.959L92.9818 166.804L67.0154 168.124ZM77.6324 177.645C77.5446 177.649 76.6912 177.698 75.4657 177.419C74.0956 177.107 72.1561 176.356 70.3654 174.674C68.5972 173.013 67.7633 171.185 67.386 169.986C67.0441 168.9 67.0164 168.144 67.0154 168.124L92.9818 166.804C92.897 165.136 92.5543 159.845 88.1653 155.723C83.6344 151.467 78.1856 151.583 76.3126 151.679L77.6324 177.645ZM69.8964 178.038L77.6324 177.645L76.3126 151.679L68.5766 152.072L69.8964 178.038ZM79.4258 167.493C79.4305 167.586 79.476 168.403 79.214 169.581C78.9244 170.883 78.2253 172.76 76.6306 174.529C75.0349 176.298 73.237 177.189 71.9646 177.612C70.8142 177.995 69.9923 178.033 69.8964 178.038L68.5766 152.072C66.6666 152.169 61.3815 152.615 57.3216 157.117C53.2675 161.613 53.3625 166.909 53.4593 168.813L79.4258 167.493ZM81.6077 210.42L79.4258 167.493L53.4593 168.813L55.6412 211.74L81.6077 210.42ZM71.0548 200.828C71.1544 200.823 71.9599 200.78 73.1226 201.036C74.4008 201.318 76.2579 201.999 78.0213 203.565C79.7956 205.141 80.7119 206.935 81.1561 208.245C81.5573 209.428 81.6008 210.286 81.6077 210.42L55.6412 211.74C55.7407 213.699 56.2163 218.973 60.7557 223.005C65.2272 226.976 70.4568 226.892 72.3746 226.795L71.0548 200.828ZM78.7907 200.435L71.0548 200.828L72.3746 226.795L80.1106 226.402L78.7907 200.435ZM69.1972 211.051C69.1942 210.992 69.1463 210.197 69.3918 209.042C69.6635 207.764 70.3377 205.859 71.9418 204.046C73.5546 202.223 75.3896 201.305 76.6905 200.87C77.8615 200.478 78.6991 200.44 78.7907 200.435L80.1106 226.402C81.9908 226.306 87.3488 225.869 91.4136 221.275C95.4192 216.748 95.2509 211.447 95.1637 209.731L69.1972 211.051ZM68.3955 195.277L69.1972 211.051L95.1637 209.731L94.362 193.958L68.3955 195.277ZM93.9998 180.959L80.7188 181.634L82.0386 207.601L95.3196 206.926L93.9998 180.959ZM108.445 209.056L107.643 193.282L81.6765 194.602L82.4782 210.376L108.445 209.056ZM97.8242 199.468C97.9658 199.461 98.8124 199.419 100.014 199.692C101.338 199.993 103.196 200.704 104.939 202.282C106.682 203.858 107.573 205.633 108.003 206.913C108.394 208.076 108.438 208.918 108.445 209.056L82.4782 210.376C82.5781 212.341 83.0534 217.543 87.495 221.561C91.9429 225.586 97.1725 225.534 99.144 225.434L97.8242 199.468ZM105.628 199.071L97.8242 199.468L99.144 225.434L106.948 225.038L105.628 199.071ZM96.0342 209.687C96.0272 209.549 95.9853 208.707 96.2563 207.51C96.5547 206.193 97.2613 204.337 98.8348 202.592C100.409 200.846 102.185 199.95 103.472 199.516C104.64 199.122 105.486 199.078 105.628 199.071L106.948 225.038C108.919 224.937 114.127 224.458 118.144 220.004C122.155 215.555 122.101 210.332 122.001 208.367L96.0342 209.687Z" fill="white" mask="url(#path-1-outside-1_592_1595)"/>
<g clip-path="url(#clip0_592_1595)">
<path d="M116.593 91.2103C118.128 121.415 137.662 146.46 164.286 156.502C173.524 160.004 183.616 161.681 194.097 161.148L196.585 210.089C196.585 210.089 266.851 137.534 264.115 83.7162C262.046 43.0081 227.355 11.678 186.605 13.7494C145.874 15.8199 114.519 50.5072 116.588 91.2106L116.593 91.2103Z" fill="#822281"/>
<path d="M186.605 13.7494C145.859 15.8206 114.519 50.5072 116.588 91.2106C119.324 145.033 196.585 210.084 196.585 210.084L194.097 161.143C204.578 160.611 214.453 157.919 223.283 153.499C248.752 140.809 265.645 113.911 264.11 83.7068C262.046 43.008 227.34 11.6787 186.605 13.7494Z" fill="#EC631A"/>
<path d="M174.168 107.656L172.018 65.35C171.846 61.9795 174.376 59.5446 176.873 60.6752L218.011 79.3209C221.165 80.7483 221.477 86.3208 218.512 88.1223L179.525 111.788C177.154 113.229 174.341 111.061 174.168 107.661L174.168 107.656Z" fill="#822281"/>
<path d="M98.538 108.626L54.3945 110.87C50.8798 111.049 48.3353 108.416 49.5154 105.816L68.9756 62.9748C70.4662 59.6945 76.2815 59.3601 78.1591 62.4497L102.847 103.047C104.348 105.515 102.087 108.446 98.538 108.626Z" fill="#822281"/>
<path d="M161.904 209.939L117.761 212.183C114.246 212.362 111.702 209.729 112.882 207.129L132.342 164.288C133.833 161.008 139.648 160.673 141.526 163.763L166.214 204.36C167.715 206.828 165.453 209.759 161.904 209.939Z" fill="#822281"/>
<path d="M54.1064 78.5248C54.6581 89.3774 48.0222 95.8469 37.362 96.3888L28.9027 96.8188L29.4999 108.567C29.6082 110.698 28.9582 111.489 26.7573 111.601L18.9912 111.995C16.7904 112.107 15.9957 111.39 15.8874 109.259L13.7014 66.2557C13.5931 64.1249 14.3109 63.3309 16.5118 63.2191L35.4907 62.2543C46.2188 61.709 53.5513 67.6044 54.1064 78.5248Z" fill="#822281"/>
<path d="M29.995 118.214L31.7167 152.084L48.2911 151.241C50.4241 151.133 51.2153 151.782 51.3271 153.981L51.6449 160.233C51.7532 162.364 51.0354 163.157 48.9024 163.266L21.6678 164.65C19.4669 164.762 18.6722 164.045 18.5639 161.914L16.3779 118.911C16.2696 116.78 16.9874 115.986 19.1883 115.874L26.9593 115.479C29.1601 115.367 29.8869 116.088 29.9952 118.218L29.995 118.214Z" fill="#822281"/>
<path d="M56.254 113.99L64.3692 113.577C66.4343 113.472 67.1528 114.125 67.2574 116.184L69.4574 159.463C69.5623 161.526 68.9086 162.244 66.8484 162.349L58.7332 162.761C56.6681 162.866 55.9496 162.213 55.845 160.155L53.6449 116.875C53.5401 114.812 54.1937 114.095 56.254 113.99Z" fill="#822281"/>
<path d="M59.7945 168.815L61.9805 211.819C62.0888 213.95 61.371 214.744 59.238 214.852L51.4671 215.247C50.0224 215.321 49.2453 214.947 48.5758 214.015L37.1558 198.272C33.8898 193.685 32.5573 190.514 30.3865 184.429L29.8387 184.457C31.6186 190.98 32.6207 194.439 33.0085 202.066L33.5776 213.263C33.6859 215.394 32.9681 216.187 30.7672 216.299L23.8252 216.652C21.6244 216.764 20.8297 216.047 20.7214 213.916L18.5354 170.913C18.4271 168.782 19.1449 167.988 21.3458 167.876L29.4609 167.464C31.0413 167.383 31.7506 167.76 32.4201 168.692L44.59 185.708C47.856 190.295 48.5413 192.877 51.0076 197.986L51.5554 197.958C48.9949 190.995 47.9352 187.742 47.579 180.734L47.0064 169.47C46.8981 167.339 47.5481 166.549 49.749 166.437L56.7637 166.081C58.8967 165.972 59.6913 166.689 59.7996 168.82L59.7945 168.815Z" fill="#822281"/>
<path d="M107.249 166.403L109.435 209.407C109.543 211.538 108.825 212.332 106.692 212.44L98.8536 212.838C96.7206 212.947 95.926 212.23 95.8177 210.099L95.0144 194.297L81.6734 194.975L82.4767 210.777C82.585 212.908 81.935 213.699 79.7341 213.81L71.9632 214.205C69.7623 214.317 68.9677 213.6 68.8594 211.469L66.6734 168.466C66.5616 166.267 67.2794 165.473 69.4803 165.361L77.2512 164.966C79.4521 164.855 80.1789 165.575 80.2907 167.774L81.0624 182.956L94.4034 182.277L93.6317 167.095C93.5199 164.897 94.2377 164.103 96.3707 163.994L104.21 163.596C106.343 163.488 107.137 164.205 107.249 166.403Z" fill="#822281"/>
</g>
<defs>
<clipPath id="clip0_592_1595">
<rect width="249.69" height="196.588" fill="white" transform="translate(11 22.676) rotate(-2.91)"/>
</clipPath>
</defs>
</svg>
